<?xml version="1.0" standalone="no"?>
<!DOCTYPE svg PUBLIC "-//W3C//DTD SVG 20010904//EN"
 "http://www.w3.org/TR/2001/REC-SVG-20010904/DTD/svg10.dtd">
<svg version="1.0" xmlns="http://www.w3.org/2000/svg"
 width="512.000000pt" height="512.000000pt" viewBox="0 0 512.000000 512.000000"
 preserveAspectRatio="xMidYMid meet">
<metadata>
Created by potrace 1.14, written by Peter Selinger 2001-2017
</metadata>
<g transform="translate(0.000000,512.000000) scale(0.100000,-0.100000)"
fill="#000000" stroke="none">
<path d="M2241 4958 c-4 -13 -21 -74 -36 -135 -16 -62 -31 -113 -34 -113 -3 0
-17 19 -30 43 -13 23 -39 66 -58 95 l-33 53 -58 -37 c-31 -20 -61 -40 -66 -44
-4 -5 17 -49 48 -99 37 -60 51 -91 42 -91 -8 0 -70 13 -137 30 -67 16 -124 28
-126 26 -8 -8 -40 -147 -34 -150 3 -2 67 -19 141 -36 261 -63 283 -69 296 -82
14 -15 254 -404 254 -412 0 -3 -114 -6 -253 -6 l-252 0 -132 128 c-72 70 -145
140 -162 156 l-31 30 -50 -52 c-27 -28 -50 -56 -50 -61 0 -6 44 -53 98 -105
l97 -96 -117 0 -118 0 0 -80 0 -80 118 0 117 0 -97 -96 c-54 -52 -98 -100 -98
-105 0 -5 22 -33 50 -61 37 -38 53 -48 62 -40 7 6 81 76 163 156 l150 146 253
0 c138 0 252 -3 252 -7 -1 -5 -27 -51 -60 -103 -33 -52 -90 -145 -127 -207
l-68 -111 -210 -51 c-115 -28 -215 -51 -221 -51 -8 0 -5 -25 7 -76 10 -42 20
-78 22 -81 3 -2 66 12 141 30 75 19 136 33 136 32 0 -2 -25 -45 -56 -96 l-57
-92 24 -18 c13 -10 44 -29 69 -43 l45 -24 55 93 c30 52 58 94 61 95 3 0 20
-59 39 -130 18 -72 36 -132 39 -134 14 -9 146 32 146 45 0 8 -8 43 -17 79 -10
36 -21 76 -23 90 -3 14 -18 75 -34 135 -24 91 -28 114 -18 133 25 47 252 412
257 412 3 0 41 -59 85 -130 44 -72 87 -142 95 -155 8 -12 31 -52 51 -87 l37
-63 -54 -210 c-29 -115 -51 -211 -50 -213 4 -3 105 -31 137 -37 12 -2 22 25
48 131 18 74 37 134 42 134 5 0 9 -4 9 -8 0 -5 13 -28 28 -53 16 -24 40 -63
55 -86 l27 -42 60 36 c33 19 63 40 66 45 3 5 -10 34 -30 63 -20 30 -36 58 -36
62 0 5 -9 19 -20 33 -11 14 -20 28 -20 31 0 5 110 -19 251 -56 25 -6 26 -4 46
70 11 41 17 78 13 80 -3 2 -82 22 -176 44 -93 23 -180 44 -194 48 -14 3 -31 7
-39 9 -8 1 -20 9 -27 16 -14 15 -254 404 -254 412 0 3 114 6 254 6 l253 0 114
-111 c63 -61 135 -132 161 -157 l47 -45 55 57 55 57 -102 99 -102 100 118 0
117 0 0 80 0 80 -117 0 -118 0 102 100 103 100 -55 57 -55 57 -37 -36 c-21
-20 -94 -91 -163 -157 l-125 -121 -253 0 c-161 0 -252 4 -250 10 2 5 59 101
128 213 l125 204 75 19 c41 10 80 19 85 20 28 5 271 67 276 70 5 3 -25 141
-33 149 -2 2 -64 -11 -138 -29 -74 -18 -136 -32 -138 -30 -2 1 22 43 52 92 31
50 56 93 56 96 0 6 -97 69 -120 78 -11 4 -30 -20 -70 -88 -30 -52 -58 -94 -61
-94 -3 0 -20 57 -38 128 -18 70 -35 130 -39 134 -6 6 -139 -25 -148 -34 -2 -3
27 -124 80 -328 23 -91 24 -96 8 -126 -32 -59 -247 -404 -252 -404 -3 0 -24
30 -46 68 -23 37 -82 135 -132 217 l-92 150 49 185 c27 102 51 197 55 212 6
25 3 28 -36 39 -24 7 -48 13 -54 15 -6 1 -21 5 -33 9 -16 5 -23 1 -30 -17z"/>
<path d="M1040 3400 l0 -120 80 0 80 0 0 120 0 120 -80 0 -80 0 0 -120z"/>
<path d="M478 3200 c-27 -28 -48 -53 -48 -57 0 -10 142 -153 152 -153 9 0 108
99 108 108 0 12 -144 152 -155 151 -6 0 -31 -22 -57 -49z"/>
<path d="M4480 3121 l0 -81 93 -1 c112 -1 119 -2 155 -28 48 -34 66 -70 67
-132 0 -46 -5 -62 -28 -92 -53 -70 -19 -67 -833 -67 l-734 0 0 -80 0 -81 763
3 762 3 47 24 c246 122 248 463 3 580 -42 21 -70 25 -172 29 l-123 4 0 -81z"/>
<path d="M1003 3024 c-127 -33 -238 -117 -299 -228 -85 -155 -82 -334 9 -488
86 -146 273 -240 449 -224 354 31 548 417 365 728 -100 171 -327 263 -524 212z"/>
<path d="M2800 2640 l0 -80 120 0 120 0 0 80 0 80 -120 0 -120 0 0 -80z"/>
<path d="M160 2560 l0 -80 120 0 120 0 0 80 0 80 -120 0 -120 0 0 -80z"/>
<path d="M1840 2560 l0 -80 120 0 120 0 0 80 0 80 -120 0 -120 0 0 -80z"/>
<path d="M3440 2320 l0 -80 453 -1 c323 0 462 -4 486 -12 48 -17 90 -73 97
-129 7 -59 -13 -107 -62 -144 -37 -28 -40 -29 -186 -32 l-148 -4 0 -80 0 -80
163 4 c148 3 166 6 212 28 64 31 124 91 155 155 34 72 34 198 0 270 -31 63
-91 123 -155 155 l-50 25 -482 3 -483 3 0 -81z"/>
<path d="M2475 2234 c-11 -2 -40 -10 -65 -16 -79 -19 -179 -79 -246 -146 -104
-103 -168 -262 -164 -406 1 -28 1 -56 1 -61 -1 -7 -28 -10 -71 -8 -86 2 -157
-18 -227 -64 -69 -46 -109 -93 -147 -173 -27 -58 -30 -75 -31 -160 0 -87 3
-101 32 -163 42 -89 127 -172 209 -207 l59 -25 698 -3 c429 -2 719 1 752 7
124 23 224 100 282 218 36 72 38 82 38 172 0 87 -4 103 -32 163 -44 93 -100
151 -191 196 -71 34 -82 37 -166 37 l-91 0 0 90 c0 98 -15 162 -53 240 -69
141 -187 241 -342 291 -46 15 -209 27 -245 18z"/>
<path d="M499 2054 l-76 -76 53 -54 c29 -30 56 -54 60 -54 10 0 154 143 154
153 0 10 -97 107 -107 107 -5 0 -42 -34 -84 -76z"/>
<path d="M1594 2075 l-51 -53 76 -76 c42 -42 79 -76 83 -76 9 0 108 99 108
108 0 11 -144 152 -155 152 -6 -1 -33 -25 -61 -55z"/>
<path d="M1040 1720 l0 -120 80 0 80 0 0 120 0 120 -80 0 -80 0 0 -120z"/>
<path d="M1826 421 c-108 -108 -196 -200 -196 -205 0 -4 24 -32 54 -60 l54
-53 196 197 c108 108 196 199 196 202 0 4 -24 31 -54 61 l-53 55 -197 -197z"/>
<path d="M2382 417 c-105 -106 -192 -196 -192 -200 0 -10 96 -107 106 -107 9
0 394 383 394 392 0 10 -97 108 -107 108 -4 0 -95 -87 -201 -193z"/>
<path d="M2942 417 c-105 -106 -192 -196 -192 -201 0 -10 97 -106 108 -106 9
0 392 384 392 393 0 9 -98 107 -107 107 -5 0 -95 -87 -201 -193z"/>
</g>
</svg>
